<?xml version="1.0" encoding="UTF-8"?>
<!-- ColorMate 图标资源 -->
<!-- 使用说明：将这些 SVG 图标导出为 PNG 格式，尺寸建议 81x81 像素 -->

<svg xmlns="http://www.w3.org/2000/svg" width="324" height="162">
  <!-- 灵感图标 (未选中) -->
  <g id="tab-inspiration" transform="translate(0, 0)">
    <rect width="81" height="81" fill="none"/>
    <circle cx="40.5" cy="35" r="18" fill="none" stroke="#999999" stroke-width="3"/>
    <circle cx="40.5" cy="35" r="8" fill="#999999"/>
    <path d="M 32 55 L 32 62 L 40.5 70 L 49 62 L 49 55" fill="none" stroke="#999999" stroke-width="3" stroke-linecap="round" stroke-linejoin="round"/>
  </g>

  <!-- 灵感图标 (选中) -->
  <g id="tab-inspiration-active" transform="translate(81, 0)">
    <rect width="81" height="81" fill="none"/>
    <circle cx="40.5" cy="35" r="18" fill="none" stroke="#1A1A1A" stroke-width="3"/>
    <circle cx="40.5" cy="35" r="8" fill="#1A1A1A"/>
    <path d="M 32 55 L 32 62 L 40.5 70 L 49 62 L 49 55" fill="none" stroke="#1A1A1A" stroke-width="3" stroke-linecap="round" stroke-linejoin="round"/>
  </g>

  <!-- 搭配室图标 (未选中) -->
  <g id="tab-studio" transform="translate(162, 0)">
    <rect width="81" height="81" fill="none"/>
    <rect x="20" y="20" width="41" height="41" rx="8" fill="none" stroke="#999999" stroke-width="3"/>
    <circle cx="40.5" cy="40.5" r="10" fill="none" stroke="#999999" stroke-width="3"/>
    <circle cx="40.5" cy="40.5" r="3" fill="#999999"/>
  </g>

  <!-- 搭配室图标 (选中) -->
  <g id="tab-studio-active" transform="translate(243, 0)">
    <rect width="81" height="81" fill="none"/>
    <rect x="20" y="20" width="41" height="41" rx="8" fill="none" stroke="#1A1A1A" stroke-width="3"/>
    <circle cx="40.5" cy="40.5" r="10" fill="none" stroke="#1A1A1A" stroke-width="3"/>
    <circle cx="40.5" cy="40.5" r="3" fill="#1A1A1A"/>
  </g>

  <!-- 收藏图标 (未选中) -->
  <g id="tab-collection" transform="translate(0, 81)">
    <rect width="81" height="81" fill="none"/>
    <path d="M 40.5 60 L 22 42 C 18 38 18 31 22 27 C 26 23 33 23 37 27 L 40.5 30.5 L 44 27 C 48 23 55 23 59 27 C 63 31 63 38 59 42 L 40.5 60 Z" fill="none" stroke="#999999" stroke-width="3" stroke-linejoin="round"/>
  </g>

  <!-- 收藏图标 (选中) -->
  <g id="tab-collection-active" transform="translate(81, 81)">
    <rect width="81" height="81" fill="none"/>
    <path d="M 40.5 60 L 22 42 C 18 38 18 31 22 27 C 26 23 33 23 37 27 L 40.5 30.5 L 44 27 C 48 23 55 23 59 27 C 63 31 63 38 59 42 L 40.5 60 Z" fill="#1A1A1A" stroke="#1A1A1A" stroke-width="3" stroke-linejoin="round"/>
  </g>
</svg>
